<?xml version="1.0" standalone="no"?>
<!DOCTYPE svg PUBLIC "-//W3C//DTD SVG 20010904//EN"
 "http://www.w3.org/TR/2001/REC-SVG-20010904/DTD/svg10.dtd">
<svg version="1.0" xmlns="http://www.w3.org/2000/svg"
 width="512.000000pt" height="512.000000pt" viewBox="0 0 512.000000 512.000000"
 preserveAspectRatio="xMidYMid meet">
<metadata>
Created by potrace 1.14, written by Peter Selinger 2001-2017
</metadata>
<g transform="translate(0.000000,512.000000) scale(0.100000,-0.100000)"
fill="#000000" stroke="none">
<path d="M2945 4150 c-27 -4 -63 -11 -80 -14 -16 -3 -42 -8 -56 -11 -64 -12
-222 -71 -304 -113 -266 -136 -475 -348 -605 -616 -37 -74 -56 -104 -64 -97
-25 21 -125 70 -181 89 -182 63 -398 66 -574 6 -352 -119 -596 -453 -600 -824
-1 -50 -4 -57 -28 -72 -105 -64 -230 -209 -291 -338 -55 -117 -76 -211 -76
-345 0 -163 10 -219 59 -337 92 -218 278 -393 498 -469 45 -15 111 -33 147
-38 87 -14 3472 -14 3550 0 406 73 698 418 698 824 0 339 -193 639 -496 771
-76 33 -77 34 -72 66 7 52 5 298 -3 358 -38 274 -179 561 -376 763 -179 184
-466 339 -706 382 -16 2 -41 8 -55 11 -40 9 -330 12 -385 4z"/>
</g>
</svg>
