<?xml version="1.0" standalone="no"?>
<!DOCTYPE svg PUBLIC "-//W3C//DTD SVG 20010904//EN"
 "http://www.w3.org/TR/2001/REC-SVG-20010904/DTD/svg10.dtd">
<svg version="1.0" xmlns="http://www.w3.org/2000/svg"
 width="512.000000pt" height="512.000000pt" viewBox="0 0 512.000000 512.000000"
 preserveAspectRatio="xMidYMid meet">
<metadata>
Created by potrace 1.14, written by Peter Selinger 2001-2017
</metadata>
<g transform="translate(0.000000,512.000000) scale(0.100000,-0.100000)"
fill="#000000" stroke="none">
<path d="M4285 5097 c-27 -13 -60 -35 -71 -48 -19 -20 -198 -326 -409 -695
-54 -95 -61 -130 -31 -163 13 -14 12 -21 -10 -56 -13 -22 -32 -56 -43 -76 -18
-32 -25 -37 -58 -37 -27 0 -43 -7 -58 -24 -11 -13 -105 -170 -208 -350 l-188
-326 -57 24 c-31 13 -65 24 -74 24 -21 0 -28 12 -34 53 -28 222 -147 423 -325
549 -114 81 -208 120 -339 141 -161 25 -334 0 -473 -68 -89 -45 -111 -68 -102
-111 5 -30 0 -38 -61 -97 -61 -59 -70 -65 -100 -60 -27 4 -37 0 -57 -21 -55
-59 -122 -248 -126 -353 -1 -17 -10 -25 -43 -34 -24 -6 -73 -26 -110 -44 -159
-79 -239 -162 -203 -212 11 -15 9 -23 -15 -53 -15 -19 -39 -54 -54 -77 -21
-34 -32 -43 -55 -43 -16 0 -38 -8 -49 -17 -26 -23 -61 -138 -69 -223 -3 -36
-8 -67 -10 -70 -2 -2 -66 -5 -141 -5 -155 -1 -179 -6 -193 -42 -5 -13 -9 -127
-9 -252 0 -215 1 -228 20 -249 25 -27 15 -24 124 -27 l89 -1 4 -30 c2 -16 19
-121 38 -234 18 -113 36 -223 39 -245 4 -23 8 -52 11 -65 3 -13 7 -42 10 -65
3 -22 10 -62 15 -90 10 -54 17 -97 26 -160 3 -22 14 -89 24 -150 17 -97 23
-140 36 -220 1 -11 5 -38 9 -60 24 -143 75 -457 80 -490 3 -22 7 -47 10 -55 2
-8 6 -37 10 -65 9 -78 15 -93 41 -109 21 -14 156 -16 1229 -16 l1206 0 24 25
c14 13 25 30 26 37 0 7 2 21 4 30 2 9 6 35 9 56 3 22 7 51 10 64 3 12 8 41 11
63 7 52 46 294 51 320 3 11 9 54 15 95 6 41 14 93 19 115 5 22 11 60 15 85 3
25 8 56 10 70 2 14 7 45 10 70 3 25 8 52 10 60 2 8 7 35 10 60 3 25 8 52 10
60 2 8 7 35 10 60 3 25 15 95 26 155 10 61 21 128 24 150 3 22 7 51 10 65 2
13 7 42 10 65 3 22 8 51 10 65 3 14 7 39 9 55 14 90 38 220 41 223 2 2 44 5
94 6 138 4 133 -6 135 258 1 117 -1 228 -5 247 -14 65 -16 66 -254 66 -117 0
-216 3 -219 5 -2 3 -7 28 -10 57 -11 100 -36 187 -77 273 -16 33 -16 37 1 65
10 17 51 89 93 160 41 72 83 144 93 162 11 18 113 196 228 395 115 200 216
374 224 388 9 14 24 39 33 55 9 17 82 144 163 283 187 322 196 340 202 396 22
176 -163 309 -321 233z"/>
</g>
</svg>
